<svg xmlns="http://www.w3.org/2000/svg" viewBox="0 0 600 300"><defs><style>      .cls-1 {        fill: none;        stroke: #fff;        stroke-miterlimit: 10;        stroke-width: 2.8px;      }      .cls-2 {        fill: #fff;      }    </style></defs><g><g id="Layer_1"><g><g><path class="cls-2" d="M335.7,47v-13.8h5.2v13.8c0,7.4-3.5,13.5-11.8,13.5s-11.9-6.5-11.9-13.5v-13.8h5.3v13.8c0,4.5,1.6,8.8,6.6,8.8s6.6-4.4,6.6-8.8Z"></path><path class="cls-2" d="M351.4,42.9v17.4h-5.3v-27.1h4.1l14.1,17.8v-17.7h5.3v27.1h-4.3l-13.9-17.4Z"></path><path class="cls-2" d="M375.3,60.2v-27.1h5.3v27.1h-5.3Z"></path><path class="cls-2" d="M388.9,33.1l7.3,20.5,7.2-20.5h5.5l-10.6,27.1h-4.4l-10.6-27.1h5.5Z"></path><path class="cls-2" d="M430.7,55.6v4.6h-18.8v-27.1h18.5v4.6h-13.2v6.5h11.4v4.3h-11.4v7.1h13.5Z"></path><path class="cls-2" d="M435,60.2v-27.1h12c5,0,8.6,4.6,8.6,9s-1.9,6.6-4.9,7.9l6.4,10.2h-6l-5.7-9.1h-5.2v9.1h-5.3ZM440.3,46.5h6.6c1.9,0,3.4-2,3.4-4.4s-1.8-4.4-3.7-4.4h-6.4v8.8Z"></path><path class="cls-2" d="M476.9,40.2c-.7-.8-4-2.7-7.3-2.7s-4.3,1.1-4.3,3.1,2.1,2.8,6.2,3.9c5.3,1.4,8.7,3.1,8.7,8s-4.7,8.1-10,8.1-8.2-1.3-11.4-3.5l2.3-4.5c.9.9,5,3.3,9.1,3.3s4.4-1,4.4-2.8-2.8-3.1-7-4.2c-5.2-1.4-7.7-3.2-7.7-7.3s4.4-8.5,9.9-8.5,7.1,1.4,9.5,3l-2.3,4.3Z"></path><path class="cls-2" d="M484.2,60.2v-27.1h5.3v27.1h-5.3Z"></path><path class="cls-2" d="M495.1,60.2v-27.1h9.8c8.9,0,13.4,6,13.4,13.5s-5.2,13.6-13.4,13.6h-9.8ZM505,37.8h-4.6v17.9h4.6c5.2,0,8.1-3.8,8.1-9s-2.9-8.9-8.1-8.9Z"></path><path class="cls-2" d="M518.8,60.2l10.7-27.1h4.3l10.7,27.1h-5.6l-2.5-6.8h-9.5l-2.5,6.8h-5.6ZM531.6,38.8l-3.9,11h7.7l-3.8-11Z"></path><path class="cls-2" d="M547.3,60.2v-27.1h9.8c8.9,0,13.4,6,13.4,13.5s-5.2,13.6-13.4,13.6h-9.8ZM557.2,37.8h-4.6v17.9h4.6c5.2,0,8.1-3.8,8.1-9s-2.9-8.9-8.1-8.9Z"></path></g><g><path class="cls-2" d="M329,72c4.8,0,8.5,2.4,10.2,5.9l-4,2.8c-1.3-3.1-4-4-6.3-4-5,0-7.5,4.7-7.5,9s3.1,9.2,7.6,9.2,5.1-1.2,6.3-4.1l4.3,2.5c-1.6,4-6.6,6.3-10.8,6.3-7.5,0-12.8-7.1-12.8-14s4.8-13.5,13-13.5Z"></path><path class="cls-2" d="M340.1,99.3l10.7-27.1h4.3l10.7,27.1h-5.6l-2.5-6.8h-9.5l-2.5,6.8h-5.6ZM352.9,77.9l-3.9,11h7.7l-3.8-11Z"></path><path class="cls-2" d="M386.4,76.8h-8.6v22.5h-5.3v-22.5h-8.7v-4.6h22.6v4.6Z"></path><path class="cls-2" d="M387.7,85.7c0-7.2,5.5-13.7,12.9-13.7s12.8,7,12.8,13.8-5.4,13.7-12.9,13.7-12.8-6.8-12.8-13.7ZM400.6,94.8c4.9,0,7.5-4.6,7.5-9.1s-2.9-9-7.6-9-7.6,4.6-7.6,9,2.8,9.1,7.6,9.1ZM402,69.9l-3.3-1,2.1-4.5h4.8l-3.6,5.5Z"></path><path class="cls-2" d="M417.5,99.3v-27.1h5.3v22.5h13.8v4.6h-19.1Z"></path><path class="cls-2" d="M440,99.3v-27.1h5.3v27.1h-5.3Z"></path><path class="cls-2" d="M462.3,72c4.8,0,8.5,2.4,10.2,5.9l-4,2.8c-1.3-3.1-4-4-6.3-4-5,0-7.5,4.7-7.5,9s3.1,9.2,7.6,9.2,5.1-1.2,6.3-4.1l4.3,2.5c-1.6,4-6.6,6.3-10.8,6.3-7.5,0-12.8-7.1-12.8-14s4.8-13.5,13-13.5Z"></path><path class="cls-2" d="M473.4,99.3l10.7-27.1h4.3l10.6,27.1h-5.6l-2.5-6.8h-9.5l-2.5,6.8h-5.6ZM486.2,77.9l-3.9,11h7.7l-3.8-11Z"></path><path class="cls-2" d="M509.9,99.3v-27.1h9.8c8.9,0,13.4,6,13.4,13.5s-5.2,13.6-13.4,13.6h-9.8ZM519.7,76.8h-4.6v17.9h4.6c5.2,0,8.1-3.9,8.1-9s-2.9-8.9-8.1-8.9Z"></path><path class="cls-2" d="M556.1,94.6v4.6h-18.8v-27.1h18.5v4.6h-13.2v6.5h11.4v4.3h-11.4v7.1h13.5Z"></path></g><g><path class="cls-2" d="M340.4,111.2v27.1h-5.2v-11.6h-12.3v11.6h-5.3v-27.1h5.3v11h12.3v-11h5.2Z"></path><path class="cls-2" d="M344.5,124.7c0-7.2,5.5-13.7,12.9-13.7s12.8,7,12.8,13.8-5.4,13.7-12.9,13.7-12.8-6.8-12.8-13.7ZM357.4,133.8c4.8,0,7.5-4.6,7.5-9.1s-2.9-9-7.6-9-7.6,4.6-7.6,9,2.8,9.1,7.6,9.1Z"></path><path class="cls-2" d="M379.6,120.9v17.4h-5.3v-27.1h4.1l14.1,17.8v-17.7h5.3v27.1h-4.3l-13.9-17.4Z"></path><path class="cls-2" d="M403.4,138.3v-27.1h9.9c8.9,0,13.4,6,13.4,13.5s-5.2,13.6-13.4,13.6h-9.9ZM413.3,115.8h-4.6v17.9h4.6c5.2,0,8.1-3.8,8.1-9s-2.9-8.9-8.1-8.9Z"></path><path class="cls-2" d="M448.9,125v-13.8h5.2v13.8c0,7.4-3.5,13.5-11.8,13.5s-11.9-6.5-11.9-13.5v-13.8h5.3v13.8c0,4.5,1.6,8.8,6.6,8.8s6.6-4.4,6.6-8.8Z"></path><path class="cls-2" d="M459.4,138.3v-27.1h12c5,0,8.6,4.6,8.6,9s-1.9,6.6-4.9,7.9l6.4,10.2h-6l-5.7-9.1h-5.2v9.1h-5.3ZM464.7,124.6h6.6c1.9,0,3.4-2,3.4-4.4s-1.8-4.4-3.7-4.4h-6.4v8.8Z"></path><path class="cls-2" d="M482.4,138.3l10.7-27.1h4.3l10.6,27.1h-5.6l-2.5-6.8h-9.5l-2.5,6.8h-5.6ZM495.2,116.9l-3.9,11h7.7l-3.8-11Z"></path><path class="cls-2" d="M526.8,118.3c-.7-.8-4-2.7-7.3-2.7s-4.3,1.1-4.3,3.1,2.1,2.8,6.2,3.9c5.3,1.4,8.7,3.1,8.7,8s-4.7,8.1-10,8.1-8.2-1.3-11.4-3.5l2.3-4.5c.9.9,5,3.3,9.1,3.3s4.4-1,4.4-2.8-2.8-3.1-7-4.2c-5.2-1.4-7.7-3.2-7.7-7.3s4.4-8.5,9.9-8.5,7.1,1.4,9.5,3l-2.3,4.3Z"></path></g><g><path class="cls-2" d="M323.9,193.7v14.6h-2.4v-19.2h1.9l11.9,14.9v-14.9h2.4v19.1h-2l-11.7-14.6Z"></path><path class="cls-2" d="M355.9,198.8v-9.7h2.4v9.7c0,5.2-2.3,9.6-8.2,9.6s-8.2-4.7-8.2-9.6v-9.7h2.4v9.7c0,3.8,1.3,7.4,5.7,7.4s5.8-3.8,5.8-7.4Z"></path><path class="cls-2" d="M375.6,206.1v2.2h-13v-19.2h12.8v2.2h-10.3v6.2h9v2h-9v6.6h10.6Z"></path><path class="cls-2" d="M390.4,193.1c-.9-1-2.9-2-5.2-2s-4.3,1.2-4.3,3.1,1.6,2.6,5,3.4c4,.9,6.5,2,6.5,5.5s-3,5.4-7,5.4-5.6-.9-7.8-2.7l1.2-2.1c1.2,1.2,3.8,2.6,6.7,2.6s4.3-1,4.3-2.9-2-2.8-5.5-3.7c-3.9-.9-5.9-2-5.9-5s2.9-5.7,6.9-5.7,4.7.9,6.3,2.2l-1.1,2Z"></path><path class="cls-2" d="M409.5,191.3h-6.6v17h-2.4v-17h-6.6v-2.2h15.7v2.2Z"></path><path class="cls-2" d="M412.2,208.3v-19.2h8.2c3.4,0,5.8,3.1,5.8,6.1s-1.6,5.1-4,5.7l4.6,7.3h-2.7l-4.4-6.9h-5.1v6.9h-2.4ZM414.7,199.3h5.8c2,0,3.3-1.9,3.3-4s-1.6-4-3.5-4h-5.6v8Z"></path><path class="cls-2" d="M428.2,208.3l7.9-19.2h2l7.9,19.2h-2.6l-2.3-5.6h-8l-2.2,5.6h-2.6ZM437,191.9l-3.6,8.9h7l-3.5-8.9Z"></path><path class="cls-2" d="M465.7,193.1c-.9-1-2.9-2-5.2-2s-4.3,1.2-4.3,3.1,1.6,2.6,5,3.4c4,.9,6.5,2,6.5,5.5s-3,5.4-7,5.4-5.6-.9-7.8-2.7l1.2-2.1c1.2,1.2,3.8,2.6,6.7,2.6s4.3-1,4.3-2.9-2-2.8-5.5-3.7c-3.9-.9-5.9-2-5.9-5s2.9-5.7,6.9-5.7,4.7.9,6.3,2.2l-1.1,2Z"></path><path class="cls-2" d="M484,206.1v2.2h-13v-19.2h12.8v2.2h-10.3v6.2h9v2h-9v6.6h10.6Z"></path><path class="cls-2" d="M489.9,193.7v14.6h-2.4v-19.2h1.9l11.9,14.9v-14.9h2.4v19.1h-2l-11.7-14.6ZM493.8,185.2c-1.2,0-1.3,1.2-1.3,1.3h-1.4c0-.5.5-2.8,2.7-2.8s2.2,1.2,3.5,1.2,1.5-1.2,1.5-1.3h1.4c0,.4-.6,2.8-2.9,2.8s-2.3-1.1-3.5-1.1Z"></path><path class="cls-2" d="M507,198.7c0-5.1,3.9-9.7,9.1-9.7s9,4.9,9,9.7-3.9,9.7-9,9.7-9-4.8-9-9.7ZM516.1,206.2c4.1,0,6.6-3.8,6.6-7.5s-2.7-7.5-6.6-7.5-6.6,3.8-6.6,7.5,2.6,7.5,6.6,7.5Z"></path><path class="cls-2" d="M528.5,208.3v-19.2h8.2c3.4,0,5.8,3.1,5.8,6.1s-1.6,5.1-4,5.7l4.6,7.3h-2.7l-4.4-6.9h-5.1v6.9h-2.4ZM530.9,199.3h5.8c2,0,3.3-1.9,3.3-4s-1.6-4-3.5-4h-5.6v8Z"></path><path class="cls-2" d="M544.4,208.3l7.9-19.2h2l7.9,19.2h-2.6l-2.3-5.6h-8l-2.2,5.6h-2.6ZM553.3,191.9l-3.6,8.9h7l-3.5-8.9Z"></path></g><g><path class="cls-2" d="M321.5,240.7v-19.2h8.2c3.4,0,5.8,3.1,5.8,6.1s-1.6,5.1-4,5.7l4.6,7.3h-2.7l-4.4-6.9h-5.1v6.9h-2.4ZM323.9,231.6h5.8c2,0,3.3-1.9,3.3-4s-1.6-4-3.5-4h-5.6v8Z"></path><path class="cls-2" d="M352.4,238.5v2.2h-13v-19.2h12.8v2.2h-10.3v6.2h9v2h-9v6.6h10.6Z"></path><path class="cls-2" d="M355.9,240.7v-19.1h2.4v19.1h-2.4Z"></path><path class="cls-2" d="M365.3,226v14.6h-2.4v-19.2h1.9l11.9,14.9v-14.9h2.4v19.1h-2l-11.7-14.6Z"></path><path class="cls-2" d="M381.7,240.7l7.9-19.2h2l7.9,19.2h-2.6l-2.3-5.6h-8l-2.2,5.6h-2.6ZM390.6,224.3l-3.6,8.9h7l-3.5-8.9Z"></path><path class="cls-2" d="M407.9,240.7v-19.2h6.6c6.2,0,9.3,4.3,9.3,9.6s-3.6,9.6-9.3,9.6h-6.6ZM414.6,223.7h-4.2v14.8h4.2c4.4,0,6.8-3.2,6.8-7.4s-2.5-7.4-6.8-7.4Z"></path><path class="cls-2" d="M440.3,238.5v2.2h-13v-19.2h12.8v2.2h-10.3v6.2h9v2h-9v6.6h10.6Z"></path><path class="cls-2" d="M450.6,240.7v-19.2h2.4v17h10.7v2.2h-13.1Z"></path><path class="cls-2" d="M464.5,240.7l7.9-19.2h2l7.9,19.2h-2.6l-2.3-5.6h-8l-2.2,5.6h-2.6ZM473.4,224.3l-3.6,8.9h7l-3.5-8.9Z"></path><path class="cls-2" d="M490.8,240.7v-19.2h8c3.4,0,5.8,3.1,5.8,6.1s-2.3,6.2-5.6,6.2h-5.7v6.9h-2.4ZM493.2,231.6h5.6c2,0,3.3-1.8,3.3-4s-1.6-4-3.5-4h-5.4v8Z"></path><path class="cls-2" d="M504.2,240.7l7.9-19.2h2l7.9,19.2h-2.6l-2.3-5.6h-8l-2.2,5.6h-2.6ZM513,224.3l-3.6,8.9h7l-3.5-8.9Z"></path><path class="cls-2" d="M522.9,238.8l12.4-15.1h-12.1v-2.2h15v1.9l-12.1,15.1h12.1v2.2h-15.2v-1.9Z"></path></g><line class="cls-1" x1="317.2" y1="164.2" x2="383.5" y2="164.2"></line><polygon class="cls-2" points="217.7 123.3 227.1 116.7 246.4 145 260.2 135.6 252.5 124.5 243.9 130.5 240.5 125.6 249.1 119.6 244.3 112.9 249.2 109.5 253.9 116.3 263.1 109.9 266.5 114.7 257.3 121.1 265.1 132.3 279.4 122.6 259.9 93.8 272.5 85 267.2 77.4 217.7 112 217.7 123.3"></polygon><polygon class="cls-2" points="43.9 132.3 51.7 121.1 42.5 114.7 45.9 109.9 55.1 116.3 59.8 109.5 64.7 112.9 59.9 119.6 68.5 125.6 65.1 130.5 56.5 124.5 48.8 135.6 62.6 145 81.8 116.7 91.5 123.4 91.5 112.2 41.8 77.4 36.5 85 49.1 93.8 29.5 122.6 43.9 132.3"></polygon><path class="cls-2" d="M94.8,208.9l11.2-7.8c-2-2.4-3.7-4.9-5.3-7.5l-11.1,7.7c-8.7-9.3-22.6-12.6-34.9-7.4-1-1.3-2.4-2.3-4-2.6-1.7-.3-3.3,0-4.7,1-2.8,2-3.6,5.8-1.7,8.7-8.4,8.7-11.2,21.9-6.3,33.7-1.2,1-2.1,2.3-2.4,3.9-.3,1.7,0,3.4,1,4.7,1,1.4,2.4,2.3,4.1,2.6.4,0,.8.1,1.2.1,1.1,0,2.2-.3,3.2-.9,3,2.9,6.5,5.2,10.5,6.8,3.7,1.4,7.5,2.1,11.3,2.1s.3,0,.5,0c-.4-1.8-.2-3.6.6-5.2,0,0,0,0,0,0-.6-1.3-.8-2.7-.7-4h0s0,0,0,0c0-1,.3-2.1.7-3.1-.2-2-1.8-3.7-3.9-4.1-2.6-.5-5.1,1.3-5.6,3.8-.1.6,0,1.2,0,1.8-5.3-2.2-9.5-6.2-11.8-11.5-1.2-2.7-1.8-5.6-1.9-8.5.5.3,1,.5,1.6.6.3,0,.6,0,.9,0,1,0,1.9-.3,2.7-.8,1.1-.7,1.8-1.8,2-3.1.5-2.6-1.3-5.1-3.8-5.6-.6,0-1.1,0-1.7,0,2.2-5.3,6.2-9.5,11.5-11.9,2.6-1.2,5.4-1.8,8.3-1.9-.2.4-.4.9-.5,1.3-.2,1.3,0,2.5.8,3.6.7,1.1,1.8,1.8,3.1,2,.3,0,.6,0,.9,0,1,0,1.9-.3,2.7-.8,1.1-.7,1.8-1.8,2-3.1,0-.5,0-1,0-1.5,5.3,2.2,9.6,6.2,11.9,11.5,1.2,2.7,1.8,5.5,1.9,8.4-.5-.3-.9-.5-1.5-.6-2.6-.5-5.1,1.3-5.6,3.8-.2,1.3,0,2.5.8,3.6.7,1,1.8,1.8,3.1,2,.3,0,.6,0,.9,0s.5,0,.7-.1c-1.9,4.7-5.3,8.5-9.6,11,.2,1.7,0,3.4-.5,5.1.7,1.7.8,3.4.5,5,.5-.2.9-.3,1.4-.5,1,1.3,2.4,2.2,4,2.5.4,0,.8,0,1.2,0,1.3,0,2.5-.4,3.6-1.1,1.4-1,2.3-2.4,2.6-4.1.3-1.6,0-3.2-.9-4.6,2.8-2.9,5-6.4,6.5-10.3,3-7.8,2.8-16.3-.5-24-.2-.4-.4-.8-.6-1.2"></path><path class="cls-2" d="M230.5,70.8l-.5,2.1c-.5,2,.6,4.1,2.6,4.8,3.8,1.3,10.3,3.5,17.7,6.2l-1.7-14.7,12-8.4-12.5-4-7.6,18-9.9-4Z"></path><path class="cls-2" d="M78.6,70.8l.5,2.1c.5,2-.6,4.1-2.6,4.8-3.8,1.3-10.3,3.5-17.7,6.2l1.7-14.7-12-8.4,12.6-4,7.5,18,9.9-4Z"></path><polygon class="cls-2" points="189.6 44.2 193.1 44.8 192.3 38.6 189.6 44.2"></polygon><path class="cls-2" d="M244.1,41.4c-28.6-10.9-58.7-16.4-89.6-16.4s-61,5.5-89.6,16.4c-3.5,1.3-5.2,5.2-3.8,8.6l8.8,21.5c26.8-11,55.3-16.6,84.6-16.6s57.7,5.6,84.6,16.6l8.8-21.5c1.4-3.4-.3-7.3-3.8-8.6M95.7,52.8c-.3.8-.9,1.5-1.6,2.1-.7.6-1.7,1.1-2.8,1.4-1.2.3-2.3.4-3.2.2-1-.2-1.8-.5-2.5-1.1-.7-.6-1.3-1.2-1.8-2-.5-.8-.9-1.7-1.1-2.7l-2.1-7.6,3.4-.9,2.1,7.6c.2.6.4,1.1.6,1.6s.6.9.9,1.2c.4.3.8.6,1.2.7.5.1,1,.1,1.6,0,.6-.2,1.1-.4,1.4-.8s.6-.8.7-1.3.2-1,.1-1.5c0-.5-.1-1.1-.3-1.6l-2.1-7.6,3.4-.9,2.1,7.6c.3,1,.4,2,.4,3,0,1-.2,1.9-.5,2.7M122.5,49.8l-8.3-7.7,1.3,8.7-3.5.5-2.3-15.3,2.8-.4,8.4,7.9-1.4-9,3.5-.5,2.3,15.3-2.9.4ZM140.1,48.1l-.8-15.4,3.6-.2.8,15.4-3.6.2ZM161.7,41.8c.2.6.4,1.1.7,1.5.3.5.8.8,1.3,1.1.5.3,1.1.4,1.7.4.4,0,.9,0,1.3-.2.5-.1.9-.3,1.3-.6.4-.3.7-.7.9-1.2l2.8,1.8c-.3.7-.9,1.4-1.6,1.9-.7.5-1.5.9-2.4,1.1-.9.2-1.8.4-2.6.3-1.1,0-2.1-.3-3-.8-.9-.5-1.7-1.1-2.3-1.9-.6-.8-1.1-1.7-1.5-2.6-.3-1-.5-1.9-.4-2.9,0-.9.2-1.9.6-2.7.4-.9.9-1.7,1.6-2.4.7-.7,1.5-1.3,2.5-1.7,1-.4,2.1-.6,3.3-.5,1.4,0,2.7.4,3.7,1.1,1,.7,1.8,1.5,2.3,2.5l-2.8,1.8c-.2-.6-.5-1-.9-1.3-.4-.3-.8-.6-1.2-.7s-.9-.2-1.3-.2c-.7,0-1.3,0-1.8.3-.5.2-1,.6-1.3,1-.4.4-.6.9-.8,1.5-.2.5-.3,1.1-.3,1.6,0,.6,0,1.2.2,1.8M194,50.9l-.5-3.6-5-.8-1.6,3.3-3.6-.6,7.6-14.5,3.8.6,2.9,16.1-3.6-.6ZM223.4,57.7l-3.4-.9,1.7-6.1-5.9-1.6-1.7,6.1-3.4-.9,4.1-14.9,3.4.9-1.6,5.8,5.9,1.6,1.6-5.8,3.4.9-4.1,14.9Z"></path><path class="cls-2" d="M205.8,89.7l-13.9-3c-12.2-2.7-24.6-4-37-4s-24.3,1.3-36.3,3.8l-15.2,3.2c-4.6,1-7.8,5-7.8,9.7v61.7c0,31.3,24.5,57,55.4,58.8v-15c-.3,0-.7,0-1.2,0-3.3,0-8.3-.5-13.8-2.6l-2.7-1.2c-1.6-.8-3.1-1.7-4.5-2.6-2.8-1.9-5.3-4.1-7.5-6.5l-2.1-2.5c-4.4-5.9-7-13.1-7.5-20.7l-.5-6.6,5.6,4.7c.6.5,1.1.9,1.7,1.4,0,0,1.4-1.8,1.7-2.2-4.5-.3-8.5-3-10.3-7.1l-.4-.7v-.7c0,0,0-1.9,0-1.9,0,0,1.9-.8,2-.8-2.8-1.8-4.8-4.7-5.4-8.2-.1-.8-.3-1.6-.4-2.5l-.5-3.4h1.8c-1.3-1.8-2.1-4-2.3-6.4-.1-2.2-.1-3.8,0-4.9l.4-3.4,45.8,13v-16.8h-31.8c-1.8,0-3.3-1.4-3.3-3.2v-2c0-1.8,1.5-3.2,3.3-3.2h31.8v-17.7c0-1.8,1.4-3.2,3.2-3.2h2c1.8,0,3.3,1.4,3.3,3.2v17.7h30.5c1.8,0,3.3,1.4,3.3,3.2v2c0,1.8-1.5,3.2-3.3,3.2h-30.5v29.4h0c.9,0,1.4-.2,1.7-.6.3-.3.5-.8.5-1.4-.3-5.2.5-7.7,3-10.2,2-2,4.5-3,7.2-3,4.1,0,8.1,2.6,9.2,6,0,0,.2.2.4.3.8-1.1,1.9-2.1,3-2.9-1-3.4,0-7.1,2.7-9.6l2.1-1.9,1.9,2.1c1.6,1.8,2.4,4.2,2.3,6.5,1-.4,2.1-.5,3.1-.5,3,0,5.8,1.4,7.5,3.8l1.7,2.3-2.4,1.7c-1.6,1.1-3.4,1.7-5.4,1.7s-2.5-.2-3.6-.7c.5.9.9,1.9,1.1,3l.5,2.9-2.9.5c-.5,0-1.1.2-1.6.2-2.2,0-4.3-.8-5.9-2.1-.3,1.2-.3,2.5,0,3.8.5,1.9,1.8,3.5,3.5,4.4l2.5,1.4-3.4,6.1-2.5-1.4c-1.4-.8-2.7-1.8-3.7-3-.5,4.9-4.1,9.6-10.3,13.4l-.6.3c-3.7,2.3-8.4,5.2-11.8,10.1v35c30.3-2.5,54.1-27.8,54.1-58.8v-61.7c0-4.7-3.2-8.7-7.8-9.7"></path><path class="cls-2" d="M201.8,142.1c-1.1.8-2.4,1.2-3.7,1.2s-3.3-.7-4.5-1.8c-.2,0-.4,0-.6,0-2.4,0-4.6.8-6.5,2.3,3,0,5.8,2.2,6.3,5.3-.4,0-.8.1-1.1.1-2.8,0-5.3-1.8-6.1-4.5-.6.6-1.1,1.3-1.5,2-2.8,4.9-1,11.1,3.9,13.9l-.6,1.2c-5-2.8-7-8.8-5.1-14h0c-1.3.1-4.6.2-5.7.5-.5.1-1.1.4-1.5.8-.5.5-.9,1.2-.7,2.2.4,2,4.7,3.6,4.9,8.5.2,4.5-3.2,9-9,12.5-6.7,4.1-18.9,11-18.4,29.9,0,0-.8,0-2.3,0-2.7,0-7.5-.3-12.8-2.4.8-1.8,3.6-8.9,4.4-10.3-.5.6-5.6,7.9-6.6,9.4-1.5-.7-3-1.6-4.5-2.6-2.7-1.8-5-3.9-6.9-6.1,1.6-1,7.6-5,9.1-5.8-.8.3-9,3.3-10.7,3.9-4.7-6-6.9-13-7.4-19.7,3.2,2.7,7.6,6.7,16.8,7,.3,0,.5,0,.8,0,8.8,0,16.3-5.3,19.6-10.3,1.5-2.4.3-3.8,0-4.1-.2-.1-.7-.5-1.4-.5s-2.1.5-3.2,2.6c-2.3,4.3-5,5.9-9.5,7.1-1.6.5-3.7.8-5.9.8-3.2,0-6.7-.7-9.9-2.5,1.2-1.5,5.5-7.6,6.7-8.8,0,0-.5.4-1.3,1-1.8,1.5-3.9,2.2-6,2.2-3.5,0-7-1.9-8.6-5.4,0,0,0,0,0-.1,1.8-.7,8.5-3.6,10.1-4.1-.3,0-1.3.2-2.6.5-.5,0-1.1.1-1.7.1-4.5,0-8.5-3.3-9.3-7.9-.1-.8-.3-1.6-.4-2.4,1.9,0,9.1.2,10.8.4-.3-.1-2.2-.6-4.5-1.1-4.1-1-7-4.6-7.2-8.8,0-1.7-.1-3.4,0-4.4l45.9,13.1s1.6.4,1.8,1.9c.2,1.5-.5,1.9-.9,3.2-.4,1.2-.6,6.1,4.7,6.7.2,0,.4,0,.6,0,3,0,5-2.2,4.9-5-.3-4.9.5-6.4,2.2-8,1.7-1.6,3.5-2.2,5.2-2.2,3.2,0,6,2.2,6.5,4.2.3,1,3,2.7,4.1,3.2.1-.3.2-.7.4-1,1.2-2.2,3.1-3.8,5.2-4.8-1.9-2.6-1.6-6.4.9-8.6,2,2.3,2.1,5.8.3,8.2,1.2-.4,2.4-.6,3.6-.6s.5,0,.8,0c.9-.5,1.9-.7,2.9-.7,2,0,3.9.9,5.2,2.6"></path><path class="cls-2" d="M221.6,236.9c-.4.2-.7.4-1.2.7.6.3,1.2.5,1.6.6-.1-.4-.3-.9-.4-1.3"></path><path class="cls-2" d="M214.2,208.9l-11.2-7.8c2-2.4,3.7-4.9,5.3-7.5l11.1,7.7c8.7-9.3,22.6-12.6,34.9-7.4,1-1.3,2.4-2.3,4-2.6,1.7-.3,3.3,0,4.7,1,2.8,2,3.6,5.8,1.7,8.7,8.4,8.7,11.2,21.9,6.3,33.7,1.2,1,2.1,2.3,2.4,3.9.3,1.7,0,3.4-1,4.7-1,1.4-2.4,2.3-4.1,2.6-.4,0-.8.1-1.2.1-1.1,0-2.2-.3-3.2-.9-3,2.9-6.5,5.2-10.5,6.8-3.7,1.4-7.5,2.1-11.3,2.1s-.3,0-.5,0c.4-1.8.2-3.6-.6-5.2,0,0,0,0,0,0,.6-1.3.8-2.7.7-4h0s0,0,0,0c0-1-.3-2.1-.7-3.1.2-2,1.8-3.7,3.9-4.1,2.6-.5,5.1,1.3,5.6,3.8.1.6,0,1.2,0,1.8,5.3-2.2,9.5-6.2,11.8-11.5,1.2-2.7,1.8-5.6,1.9-8.5-.5.3-1,.5-1.6.6-.3,0-.6,0-.9,0-1,0-1.9-.3-2.7-.8-1.1-.7-1.8-1.8-2-3.1-.5-2.6,1.3-5.1,3.8-5.6.6,0,1.1,0,1.7,0-2.2-5.3-6.2-9.5-11.5-11.9-2.6-1.2-5.4-1.8-8.3-1.9.2.4.4.9.5,1.3.2,1.3,0,2.5-.8,3.6-.7,1.1-1.8,1.8-3.1,2-.3,0-.6,0-.9,0-1,0-1.9-.3-2.7-.8-1.1-.7-1.8-1.8-2-3.1,0-.5,0-1,0-1.5-5.3,2.2-9.6,6.2-11.9,11.5-1.2,2.7-1.8,5.5-1.9,8.4.5-.3.9-.5,1.5-.6,2.6-.5,5.1,1.3,5.6,3.8.2,1.3,0,2.5-.8,3.6-.7,1-1.8,1.8-3.1,2-.3,0-.6,0-.9,0s-.5,0-.7-.1c1.9,4.7,5.3,8.5,9.6,11-.2,1.7,0,3.4.5,5.1-.7,1.7-.8,3.4-.5,5-.5-.2-.9-.3-1.4-.5-1,1.3-2.4,2.2-4,2.5-.4,0-.8,0-1.2,0-1.3,0-2.5-.4-3.6-1.1-1.4-1-2.3-2.4-2.6-4.1-.3-1.6,0-3.2.9-4.6-2.8-2.9-5-6.4-6.5-10.3-3-7.8-2.8-16.3.5-24,.2-.4.4-.8.6-1.2"></path><path class="cls-2" d="M141.7,224.1c-1.4.8-1.9,2-2.1,3.6,1.3-.4,2.6-.8,3.9-1.4,1.1-.5,2.3-1.1,3.4-1.8.3-.2.5-.4.8-.6-1.4-.1-2.8-.4-4.3-.6-.6.3-1.1.6-1.7.9"></path><path class="cls-2" d="M135.3,232.3c-1.6.5-3,1-3.7,2.7,1.9,0,4,.3,6,0,1-.2,2.1-.2,3.6-1.1,1.3-.8,2.3-1.9,2.5-3.5-1.9.7-3.9,1.1-5.7,1.5-.9.1-1.9.3-2.8.4"></path><path class="cls-2" d="M138.9,228.5c-1.7.5-2.4,1.7-3,3.2,2,0,3.8-.5,5.8-1.1,1.2-.4,2.3-.9,3.4-1.7,1.2-1,2-2.4,1.9-3.9-1.4.9-2.8,1.4-4.1,2.1-1.4.6-2.7,1-4,1.5"></path><path class="cls-2" d="M135.9,235.6c-1.9,0-3.7,0-5.4,0-1.7-.1-2.7.8-3.7,2,1.4.4,2.6.5,4,.7,1.3.2,2.6.3,3.9.2,1.6-.1,3.2-.7,4.2-2.2.3-.4.5-.8.8-1.3-.7.1-1.3.2-1.7.3-.7.1-1.3.3-2.1.3"></path><path class="cls-2" d="M120.8,239.5c-1.7-.6-3.1-.2-4.6.8,1.7,1.2,3.5,1.8,5.4,2.7,1,.3,2,.9,3.6.8,1.5,0,2.9-.6,3.9-1.7-2.1-.5-3.9-1-5.7-1.6-.8-.3-1.8-.7-2.7-1"></path><path class="cls-2" d="M125.8,237.9c-1.7-.4-2.9.4-4.2,1.4,1.8.9,3.6,1.3,5.6,1.9,1.2.3,2.5.5,3.7.3,1.5-.2,2.9-.9,3.7-2.4-1.6,0-3.2-.2-4.6-.4-1.4-.2-2.8-.4-4.2-.7"></path><path class="cls-2" d="M119.8,242.7c-1.7-.6-3.3-1.6-4.9-2.4-1.5-.8-2.8-.3-4.3.4,1.2.9,2.3,1.5,3.5,2.2,1.1.6,2.2,1.3,3.4,1.9,1.5.7,3.1.6,4.6,0,.4-.2.8-.4,1.3-.7-.7-.2-1.2-.4-1.7-.6-.7-.2-1.3-.5-2-.7"></path><path class="cls-2" d="M104.1,240.6c-1.5-1.1-3-1.4-4.7-.7,1.4,1.4,2.9,2.8,4.4,4.2.8.6,1.6,1.2,3.1,1.8,1.4.5,2.8.5,4.1-.1-1.7-1.2-3.2-2.4-4.7-3.5-.7-.6-1.6-1.2-2.2-1.7"></path><path class="cls-2" d="M111.3,241.9c-.6-.4-1.3-.8-1.8-1.2-1.5-1-3-.9-4.5-.1,1.5,1.2,3,2.5,4.7,3.7,1,.7,2.1,1.4,3.3,1.7,1.4.4,2.9.2,4.2-.6-1.4-.8-2.7-1.5-4-2.3-.6-.4-1.2-.7-1.9-1.1"></path><path class="cls-2" d="M102.1,243.2c-1.4-1.2-2.7-2.5-4.1-3.6-.3-.2-.6-.4-.9-.5-.4.7-.8,1.4-1.3,2.1.3.3.5.5.8.8.9.8,1.8,1.7,2.8,2.6,1.2,1,2.7,1.5,4.3,1.4.5,0,.9-.2,1.5-.4-.6-.4-1-.7-1.3-1-.5-.5-1.1-.9-1.6-1.4"></path><path class="cls-2" d="M94.7,244.5c1.3.8,2.7.8,4.2.4-1.1-1.1-2.2-2.1-3.2-3.1,0,0-.1-.1-.2-.2-.5.8-1,1.5-1.6,2.2.3.2.6.5.9.7"></path><path class="cls-2" d="M72.3,251.1c.7-1.3,1.5-2.5,2.2-3.8.8-1.6,1.1-3.3.8-5.2-.5-1.3-1.1-1.2-1.4,0-.4.7-.7,1.4-1.1,2.1-1,1.9-2.1,3.7-3.1,5.6-.9,1.8-.6,3.7.1,5.5.8-1.4,1.6-2.8,2.4-4.2"></path><path class="cls-2" d="M73.4,242.1c0-1.8-3.1-1.4-3.5,0-.9,2-1,4,0,6,1.2-2,2.4-4,3.6-6"></path><path class="cls-2" d="M74.5,267.5c1.4-.8,2.3-2.3,2.3-4s-.7-2.8-1.8-3.7c0,0,0,0,0-.1.5-1.6.4-3.3-.2-4.8-.8,1.3-1.6,2.6-2.3,3.9-.1,0-.3,0-.4,0s-.1,0-.2,0c.5-.8,1-1.5,1.4-2.3.7-1.2,1.3-2.5,1.8-3.8.5-1.6.4-3.3-.2-4.9-.9,1.5-1.8,3-2.6,4.4-.8,1.5-1.7,2.9-2.4,4.5-.5,1-.7,2.1-.6,3.2-1.1.9-1.8,2.2-1.8,3.7s.9,3.2,2.3,4l-2.6,7.2c1.6.6,3.2.9,5,.9s3.4-.4,5-.9l-2.6-7.2Z"></path><path class="cls-2" d="M167.3,224.1c1.4.8,1.9,2,2.1,3.6-1.3-.4-2.6-.8-3.9-1.4-1.1-.5-2.3-1.1-3.4-1.8-.3-.2-.5-.4-.8-.6,1.4-.1,2.8-.4,4.3-.6.6.3,1.1.6,1.7.9"></path><path class="cls-2" d="M173.7,232.3c1.6.5,3,1,3.7,2.7-1.9,0-4,.3-6,0-1-.2-2.1-.2-3.6-1.1-1.3-.8-2.3-1.9-2.5-3.5,1.9.7,3.9,1.1,5.7,1.5.9.1,1.9.3,2.8.4"></path><path class="cls-2" d="M170.1,228.5c1.7.5,2.4,1.7,3,3.2-2,0-3.8-.5-5.8-1.1-1.2-.4-2.3-.9-3.4-1.7-1.2-1-2-2.4-1.9-3.9,1.4.9,2.8,1.4,4.1,2.1,1.4.6,2.7,1,4,1.5"></path><path class="cls-2" d="M173.1,235.6c1.9,0,3.7,0,5.4,0,1.7-.1,2.7.8,3.7,2-1.4.4-2.6.5-4,.7-1.3.2-2.6.3-3.9.2-1.6-.1-3.2-.7-4.2-2.2-.3-.4-.5-.8-.8-1.3.7.1,1.3.2,1.7.3.7.1,1.3.3,2.1.3"></path><path class="cls-2" d="M188.2,239.5c1.7-.6,3.1-.2,4.6.8-1.7,1.2-3.5,1.8-5.4,2.7-1,.3-2,.9-3.6.8-1.5,0-2.9-.6-3.9-1.7,2.1-.5,3.9-1,5.7-1.6.8-.3,1.8-.7,2.7-1"></path><path class="cls-2" d="M183.2,237.9c1.7-.4,2.9.4,4.2,1.4-1.8.9-3.6,1.3-5.6,1.9-1.2.3-2.5.5-3.7.3-1.5-.2-2.9-.9-3.7-2.4,1.6,0,3.2-.2,4.6-.4,1.4-.2,2.8-.4,4.2-.7"></path><path class="cls-2" d="M189.2,242.7c1.7-.6,3.3-1.6,4.9-2.4,1.5-.8,2.8-.3,4.3.4-1.2.9-2.3,1.5-3.5,2.2-1.1.6-2.2,1.3-3.4,1.9-1.5.7-3.1.6-4.6,0-.4-.2-.8-.4-1.3-.7.7-.2,1.2-.4,1.7-.6.7-.2,1.3-.5,2-.7"></path><path class="cls-2" d="M204.9,240.6c1.5-1.1,3-1.4,4.7-.7-1.4,1.4-2.9,2.8-4.4,4.2-.8.6-1.6,1.2-3.1,1.8-1.4.5-2.8.5-4.1-.1,1.7-1.2,3.2-2.4,4.7-3.5.7-.6,1.6-1.2,2.2-1.7"></path><path class="cls-2" d="M197.7,241.9c.6-.4,1.3-.8,1.8-1.2,1.5-1,3-.9,4.5-.1-1.5,1.2-3,2.5-4.7,3.7-1,.7-2.1,1.4-3.3,1.7-1.4.4-2.9.2-4.2-.6,1.4-.8,2.7-1.5,4-2.3.6-.4,1.2-.7,1.9-1.1"></path><path class="cls-2" d="M206.9,243.2c1.4-1.2,2.7-2.5,4.1-3.6.3-.2.6-.4.9-.5.4.7.8,1.4,1.3,2.1-.3.3-.5.5-.8.8-.9.8-1.8,1.7-2.8,2.6-1.2,1-2.7,1.5-4.3,1.4-.5,0-.9-.2-1.5-.4.6-.4,1-.7,1.3-1,.5-.5,1.1-.9,1.6-1.4"></path><path class="cls-2" d="M214.3,244.5c-1.3.8-2.7.8-4.2.4,1.1-1.1,2.2-2.1,3.2-3.1,0,0,.1-.1.2-.2.5.8,1,1.5,1.6,2.2-.3.2-.6.5-.9.7"></path><path class="cls-2" d="M236.7,251.3c-.7-1.3-1.5-2.5-2.2-3.8-.8-1.6-1.1-3.3-.8-5.2.5-1.3,1.1-1.2,1.4,0,.4.7.7,1.4,1.1,2.1,1,1.9,2.1,3.7,3.1,5.6.9,1.8.6,3.7-.1,5.5-.8-1.4-1.6-2.8-2.4-4.2"></path><path class="cls-2" d="M235.5,242.3c0-1.8,3.1-1.4,3.5,0,.9,2,1,4,0,6-1.2-2-2.4-4-3.6-6"></path><path class="cls-2" d="M234.4,267.7c-1.4-.8-2.3-2.3-2.3-4s.7-2.8,1.8-3.7c0,0,0,0,0-.1-.5-1.6-.4-3.3.2-4.8.8,1.3,1.6,2.6,2.3,3.9.1,0,.3,0,.4,0s.1,0,.2,0c-.5-.8-1-1.5-1.4-2.3-.7-1.2-1.3-2.5-1.8-3.8-.5-1.6-.4-3.3.2-4.9.9,1.5,1.8,3,2.6,4.4.8,1.5,1.7,2.9,2.4,4.5.5,1,.7,2.1.6,3.2,1.1.9,1.8,2.2,1.8,3.7s-.9,3.2-2.3,4l2.6,7.2c-1.6.6-3.2.9-5,.9s-3.4-.4-5-.9l2.6-7.2Z"></path></g></g></g></svg>